<mxfile host="app.diagrams.net" modified="2023-09-24T16:24:25.901Z" agent="Mozilla/5.0 (X11; Linux x86_64; rv:109.0) Gecko/20100101 Firefox/117.0" etag="N9uwGvzAkt_wbWFH4jRJ" version="21.8.2" type="device" pages="2">
  <diagram name="Simple" id="9oDwhHapX-pNFomIDjBo">
    <mxGraphModel dx="1687" dy="920" grid="1" gridSize="10" guides="1" tooltips="1" connect="1" arrows="1" fold="1" page="1" pageScale="1" pageWidth="1100" pageHeight="850" math="0" shadow="0">
      <root>
        <mxCell id="0" />
        <mxCell id="1" parent="0" />
        <mxCell id="Mwzm4c28CgEBQkUz1xrt-1" value="AWS Cloud" style="points=[[0,0],[0.25,0],[0.5,0],[0.75,0],[1,0],[1,0.25],[1,0.5],[1,0.75],[1,1],[0.75,1],[0.5,1],[0.25,1],[0,1],[0,0.75],[0,0.5],[0,0.25]];outlineConnect=0;gradientColor=none;html=1;whiteSpace=wrap;fontSize=12;fontStyle=0;container=1;pointerEvents=0;collapsible=0;recursiveResize=0;shape=mxgraph.aws4.group;grIcon=mxgraph.aws4.group_aws_cloud_alt;strokeColor=#232F3E;fillColor=none;verticalAlign=top;align=left;spacingLeft=30;fontColor=#232F3E;dashed=0;" vertex="1" parent="1">
          <mxGeometry x="40" y="40" width="1020" height="770" as="geometry" />
        </mxCell>
        <mxCell id="Mwzm4c28CgEBQkUz1xrt-2" value="eu-south-2 (SPAIN)" style="points=[[0,0],[0.25,0],[0.5,0],[0.75,0],[1,0],[1,0.25],[1,0.5],[1,0.75],[1,1],[0.75,1],[0.5,1],[0.25,1],[0,1],[0,0.75],[0,0.5],[0,0.25]];outlineConnect=0;gradientColor=none;html=1;whiteSpace=wrap;fontSize=12;fontStyle=0;container=1;pointerEvents=0;collapsible=0;recursiveResize=0;shape=mxgraph.aws4.group;grIcon=mxgraph.aws4.group_region;strokeColor=#147EBA;fillColor=none;verticalAlign=top;align=left;spacingLeft=30;fontColor=#147EBA;dashed=1;" vertex="1" parent="Mwzm4c28CgEBQkUz1xrt-1">
          <mxGeometry x="40" y="40" width="940" height="690" as="geometry" />
        </mxCell>
        <mxCell id="Mwzm4c28CgEBQkUz1xrt-3" value="az1(a)" style="fillColor=none;strokeColor=#147EBA;dashed=1;verticalAlign=top;fontStyle=0;fontColor=#147EBA;whiteSpace=wrap;html=1;" vertex="1" parent="Mwzm4c28CgEBQkUz1xrt-2">
          <mxGeometry x="70" y="40" width="240" height="610" as="geometry" />
        </mxCell>
        <mxCell id="Mwzm4c28CgEBQkUz1xrt-4" value="az2(b)" style="fillColor=none;strokeColor=#147EBA;dashed=1;verticalAlign=top;fontStyle=0;fontColor=#147EBA;whiteSpace=wrap;html=1;" vertex="1" parent="Mwzm4c28CgEBQkUz1xrt-2">
          <mxGeometry x="350" y="40" width="240" height="610" as="geometry" />
        </mxCell>
        <mxCell id="Mwzm4c28CgEBQkUz1xrt-5" value="az3(c)" style="fillColor=none;strokeColor=#147EBA;dashed=1;verticalAlign=top;fontStyle=0;fontColor=#147EBA;whiteSpace=wrap;html=1;" vertex="1" parent="Mwzm4c28CgEBQkUz1xrt-2">
          <mxGeometry x="630" y="40" width="240" height="610" as="geometry" />
        </mxCell>
        <mxCell id="Mwzm4c28CgEBQkUz1xrt-6" value="&lt;b&gt;VPC&lt;/b&gt;" style="points=[[0,0],[0.25,0],[0.5,0],[0.75,0],[1,0],[1,0.25],[1,0.5],[1,0.75],[1,1],[0.75,1],[0.5,1],[0.25,1],[0,1],[0,0.75],[0,0.5],[0,0.25]];outlineConnect=0;gradientColor=none;html=1;whiteSpace=wrap;fontSize=12;fontStyle=0;container=1;pointerEvents=0;collapsible=0;recursiveResize=0;shape=mxgraph.aws4.group;grIcon=mxgraph.aws4.group_vpc;strokeColor=#248814;fillColor=none;verticalAlign=top;align=left;spacingLeft=30;fontColor=#AAB7B8;dashed=0;" vertex="1" parent="Mwzm4c28CgEBQkUz1xrt-2">
          <mxGeometry x="40" y="80" width="860" height="540" as="geometry" />
        </mxCell>
        <mxCell id="Mwzm4c28CgEBQkUz1xrt-7" value="Public subnet" style="points=[[0,0],[0.25,0],[0.5,0],[0.75,0],[1,0],[1,0.25],[1,0.5],[1,0.75],[1,1],[0.75,1],[0.5,1],[0.25,1],[0,1],[0,0.75],[0,0.5],[0,0.25]];outlineConnect=0;gradientColor=none;html=1;whiteSpace=wrap;fontSize=12;fontStyle=0;container=1;pointerEvents=0;collapsible=0;recursiveResize=0;shape=mxgraph.aws4.group;grIcon=mxgraph.aws4.group_security_group;grStroke=0;strokeColor=#248814;fillColor=#E9F3E6;verticalAlign=top;align=left;spacingLeft=30;fontColor=#248814;dashed=0;" vertex="1" parent="Mwzm4c28CgEBQkUz1xrt-6">
          <mxGeometry x="80" y="40" width="140" height="450" as="geometry" />
        </mxCell>
        <mxCell id="Mwzm4c28CgEBQkUz1xrt-8" value="Public subnet" style="points=[[0,0],[0.25,0],[0.5,0],[0.75,0],[1,0],[1,0.25],[1,0.5],[1,0.75],[1,1],[0.75,1],[0.5,1],[0.25,1],[0,1],[0,0.75],[0,0.5],[0,0.25]];outlineConnect=0;gradientColor=none;html=1;whiteSpace=wrap;fontSize=12;fontStyle=0;container=1;pointerEvents=0;collapsible=0;recursiveResize=0;shape=mxgraph.aws4.group;grIcon=mxgraph.aws4.group_security_group;grStroke=0;strokeColor=#248814;fillColor=#E9F3E6;verticalAlign=top;align=left;spacingLeft=30;fontColor=#248814;dashed=0;" vertex="1" parent="Mwzm4c28CgEBQkUz1xrt-6">
          <mxGeometry x="360" y="40" width="140" height="450" as="geometry" />
        </mxCell>
        <mxCell id="Mwzm4c28CgEBQkUz1xrt-9" value="" style="shape=flexArrow;endArrow=classic;startArrow=classic;html=1;rounded=0;entryX=0.52;entryY=1.032;entryDx=0;entryDy=0;entryPerimeter=0;" edge="1" parent="Mwzm4c28CgEBQkUz1xrt-8">
          <mxGeometry width="100" height="100" relative="1" as="geometry">
            <mxPoint x="69.99950209521529" y="479.9955096730398" as="sourcePoint" />
            <mxPoint x="70.94999999999999" y="293.84999999999985" as="targetPoint" />
          </mxGeometry>
        </mxCell>
        <mxCell id="Mwzm4c28CgEBQkUz1xrt-10" value="Public subnet" style="points=[[0,0],[0.25,0],[0.5,0],[0.75,0],[1,0],[1,0.25],[1,0.5],[1,0.75],[1,1],[0.75,1],[0.5,1],[0.25,1],[0,1],[0,0.75],[0,0.5],[0,0.25]];outlineConnect=0;gradientColor=none;html=1;whiteSpace=wrap;fontSize=12;fontStyle=0;container=1;pointerEvents=0;collapsible=0;recursiveResize=0;shape=mxgraph.aws4.group;grIcon=mxgraph.aws4.group_security_group;grStroke=0;strokeColor=#248814;fillColor=#E9F3E6;verticalAlign=top;align=left;spacingLeft=30;fontColor=#248814;dashed=0;" vertex="1" parent="Mwzm4c28CgEBQkUz1xrt-6">
          <mxGeometry x="640" y="40" width="140" height="450" as="geometry" />
        </mxCell>
        <mxCell id="Mwzm4c28CgEBQkUz1xrt-11" value="Security group" style="fillColor=none;strokeColor=#DD3522;verticalAlign=top;fontStyle=0;fontColor=#DD3522;whiteSpace=wrap;html=1;" vertex="1" parent="Mwzm4c28CgEBQkUz1xrt-6">
          <mxGeometry x="55" y="200" width="750" height="130" as="geometry" />
        </mxCell>
        <mxCell id="Mwzm4c28CgEBQkUz1xrt-12" value="OpenVPN" style="sketch=0;points=[[0,0,0],[0.25,0,0],[0.5,0,0],[0.75,0,0],[1,0,0],[0,1,0],[0.25,1,0],[0.5,1,0],[0.75,1,0],[1,1,0],[0,0.25,0],[0,0.5,0],[0,0.75,0],[1,0.25,0],[1,0.5,0],[1,0.75,0]];outlineConnect=0;fontColor=#232F3E;fillColor=#ED7100;strokeColor=#ffffff;dashed=0;verticalLabelPosition=bottom;verticalAlign=top;align=center;html=1;fontSize=12;fontStyle=0;aspect=fixed;shape=mxgraph.aws4.resourceIcon;resIcon=mxgraph.aws4.ec2;" vertex="1" parent="Mwzm4c28CgEBQkUz1xrt-6">
          <mxGeometry x="391" y="226" width="78" height="78" as="geometry" />
        </mxCell>
        <mxCell id="Mwzm4c28CgEBQkUz1xrt-13" value="EIP" style="sketch=0;outlineConnect=0;fontColor=#232F3E;gradientColor=none;fillColor=#ED7100;strokeColor=none;dashed=0;verticalLabelPosition=bottom;verticalAlign=top;align=center;html=1;fontSize=12;fontStyle=0;aspect=fixed;pointerEvents=1;shape=mxgraph.aws4.elastic_ip_address;" vertex="1" parent="Mwzm4c28CgEBQkUz1xrt-6">
          <mxGeometry x="406" y="520" width="48" height="20" as="geometry" />
        </mxCell>
      </root>
    </mxGraphModel>
  </diagram>
  <diagram id="qTUR6LgvcD0iknV4s_xD" name="HA+Cluster">
    <mxGraphModel dx="2868" dy="1474" grid="1" gridSize="10" guides="1" tooltips="1" connect="1" arrows="1" fold="1" page="1" pageScale="1" pageWidth="1100" pageHeight="850" math="0" shadow="0">
      <root>
        <mxCell id="0" />
        <mxCell id="1" parent="0" />
        <mxCell id="nJ3LB4OTwtg94eYrsXtY-1" value="AWS Cloud" style="points=[[0,0],[0.25,0],[0.5,0],[0.75,0],[1,0],[1,0.25],[1,0.5],[1,0.75],[1,1],[0.75,1],[0.5,1],[0.25,1],[0,1],[0,0.75],[0,0.5],[0,0.25]];outlineConnect=0;gradientColor=none;html=1;whiteSpace=wrap;fontSize=12;fontStyle=0;container=1;pointerEvents=0;collapsible=0;recursiveResize=0;shape=mxgraph.aws4.group;grIcon=mxgraph.aws4.group_aws_cloud_alt;strokeColor=#232F3E;fillColor=none;verticalAlign=top;align=left;spacingLeft=30;fontColor=#232F3E;dashed=0;" vertex="1" parent="1">
          <mxGeometry x="40" y="40" width="1020" height="1280" as="geometry" />
        </mxCell>
        <mxCell id="nJ3LB4OTwtg94eYrsXtY-2" value="eu-south-2 (SPAIN)" style="points=[[0,0],[0.25,0],[0.5,0],[0.75,0],[1,0],[1,0.25],[1,0.5],[1,0.75],[1,1],[0.75,1],[0.5,1],[0.25,1],[0,1],[0,0.75],[0,0.5],[0,0.25]];outlineConnect=0;gradientColor=none;html=1;whiteSpace=wrap;fontSize=12;fontStyle=0;container=1;pointerEvents=0;collapsible=0;recursiveResize=0;shape=mxgraph.aws4.group;grIcon=mxgraph.aws4.group_region;strokeColor=#147EBA;fillColor=none;verticalAlign=top;align=left;spacingLeft=30;fontColor=#147EBA;dashed=1;" vertex="1" parent="nJ3LB4OTwtg94eYrsXtY-1">
          <mxGeometry x="40" y="40" width="940" height="1080" as="geometry" />
        </mxCell>
        <mxCell id="nJ3LB4OTwtg94eYrsXtY-3" value="az1(a)" style="fillColor=none;strokeColor=#147EBA;dashed=1;verticalAlign=top;fontStyle=0;fontColor=#147EBA;whiteSpace=wrap;html=1;" vertex="1" parent="nJ3LB4OTwtg94eYrsXtY-2">
          <mxGeometry x="70" y="160" width="240" height="610" as="geometry" />
        </mxCell>
        <mxCell id="nJ3LB4OTwtg94eYrsXtY-4" value="az2(b)" style="fillColor=none;strokeColor=#147EBA;dashed=1;verticalAlign=top;fontStyle=0;fontColor=#147EBA;whiteSpace=wrap;html=1;" vertex="1" parent="nJ3LB4OTwtg94eYrsXtY-2">
          <mxGeometry x="350" y="160" width="240" height="610" as="geometry" />
        </mxCell>
        <mxCell id="nJ3LB4OTwtg94eYrsXtY-5" value="az3(c)" style="fillColor=none;strokeColor=#147EBA;dashed=1;verticalAlign=top;fontStyle=0;fontColor=#147EBA;whiteSpace=wrap;html=1;" vertex="1" parent="nJ3LB4OTwtg94eYrsXtY-2">
          <mxGeometry x="630" y="160" width="240" height="610" as="geometry" />
        </mxCell>
        <mxCell id="nJ3LB4OTwtg94eYrsXtY-6" value="&lt;b&gt;VPC&lt;/b&gt;" style="points=[[0,0],[0.25,0],[0.5,0],[0.75,0],[1,0],[1,0.25],[1,0.5],[1,0.75],[1,1],[0.75,1],[0.5,1],[0.25,1],[0,1],[0,0.75],[0,0.5],[0,0.25]];outlineConnect=0;gradientColor=none;html=1;whiteSpace=wrap;fontSize=12;fontStyle=0;container=1;pointerEvents=0;collapsible=0;recursiveResize=0;shape=mxgraph.aws4.group;grIcon=mxgraph.aws4.group_vpc;strokeColor=#248814;fillColor=none;verticalAlign=top;align=left;spacingLeft=30;fontColor=#AAB7B8;dashed=0;" vertex="1" parent="nJ3LB4OTwtg94eYrsXtY-2">
          <mxGeometry x="40" y="200" width="860" height="690" as="geometry" />
        </mxCell>
        <mxCell id="nJ3LB4OTwtg94eYrsXtY-7" value="Public subnet" style="points=[[0,0],[0.25,0],[0.5,0],[0.75,0],[1,0],[1,0.25],[1,0.5],[1,0.75],[1,1],[0.75,1],[0.5,1],[0.25,1],[0,1],[0,0.75],[0,0.5],[0,0.25]];outlineConnect=0;gradientColor=none;html=1;whiteSpace=wrap;fontSize=12;fontStyle=0;container=1;pointerEvents=0;collapsible=0;recursiveResize=0;shape=mxgraph.aws4.group;grIcon=mxgraph.aws4.group_security_group;grStroke=0;strokeColor=#248814;fillColor=#E9F3E6;verticalAlign=top;align=left;spacingLeft=30;fontColor=#248814;dashed=0;" vertex="1" parent="nJ3LB4OTwtg94eYrsXtY-6">
          <mxGeometry x="80" y="40" width="140" height="450" as="geometry" />
        </mxCell>
        <mxCell id="nJ3LB4OTwtg94eYrsXtY-8" value="Public subnet" style="points=[[0,0],[0.25,0],[0.5,0],[0.75,0],[1,0],[1,0.25],[1,0.5],[1,0.75],[1,1],[0.75,1],[0.5,1],[0.25,1],[0,1],[0,0.75],[0,0.5],[0,0.25]];outlineConnect=0;gradientColor=none;html=1;whiteSpace=wrap;fontSize=12;fontStyle=0;container=1;pointerEvents=0;collapsible=0;recursiveResize=0;shape=mxgraph.aws4.group;grIcon=mxgraph.aws4.group_security_group;grStroke=0;strokeColor=#248814;fillColor=#E9F3E6;verticalAlign=top;align=left;spacingLeft=30;fontColor=#248814;dashed=0;" vertex="1" parent="nJ3LB4OTwtg94eYrsXtY-6">
          <mxGeometry x="360" y="40" width="140" height="450" as="geometry" />
        </mxCell>
        <mxCell id="nJ3LB4OTwtg94eYrsXtY-9" value="Public subnet" style="points=[[0,0],[0.25,0],[0.5,0],[0.75,0],[1,0],[1,0.25],[1,0.5],[1,0.75],[1,1],[0.75,1],[0.5,1],[0.25,1],[0,1],[0,0.75],[0,0.5],[0,0.25]];outlineConnect=0;gradientColor=none;html=1;whiteSpace=wrap;fontSize=12;fontStyle=0;container=1;pointerEvents=0;collapsible=0;recursiveResize=0;shape=mxgraph.aws4.group;grIcon=mxgraph.aws4.group_security_group;grStroke=0;strokeColor=#248814;fillColor=#E9F3E6;verticalAlign=top;align=left;spacingLeft=30;fontColor=#248814;dashed=0;" vertex="1" parent="nJ3LB4OTwtg94eYrsXtY-6">
          <mxGeometry x="640" y="40" width="140" height="450" as="geometry" />
        </mxCell>
        <mxCell id="nJ3LB4OTwtg94eYrsXtY-10" style="edgeStyle=orthogonalEdgeStyle;rounded=0;orthogonalLoop=1;jettySize=auto;html=1;startArrow=classic;startFill=1;" edge="1" parent="nJ3LB4OTwtg94eYrsXtY-6" source="nJ3LB4OTwtg94eYrsXtY-11" target="nJ3LB4OTwtg94eYrsXtY-12">
          <mxGeometry relative="1" as="geometry" />
        </mxCell>
        <mxCell id="nJ3LB4OTwtg94eYrsXtY-11" value="Route table" style="sketch=0;outlineConnect=0;fontColor=#232F3E;gradientColor=none;strokeColor=#232F3E;fillColor=#ffffff;dashed=0;verticalLabelPosition=bottom;verticalAlign=top;align=center;html=1;fontSize=12;fontStyle=0;aspect=fixed;shape=mxgraph.aws4.resourceIcon;resIcon=mxgraph.aws4.route_table;" vertex="1" parent="nJ3LB4OTwtg94eYrsXtY-6">
          <mxGeometry x="680" y="600" width="60" height="60" as="geometry" />
        </mxCell>
        <mxCell id="nJ3LB4OTwtg94eYrsXtY-12" value="" style="sketch=0;outlineConnect=0;fontColor=#232F3E;gradientColor=none;fillColor=#8C4FFF;strokeColor=none;dashed=0;verticalLabelPosition=bottom;verticalAlign=top;align=center;html=1;fontSize=12;fontStyle=0;aspect=fixed;pointerEvents=1;shape=mxgraph.aws4.internet_gateway;" vertex="1" parent="nJ3LB4OTwtg94eYrsXtY-6">
          <mxGeometry x="391" y="591" width="78" height="78" as="geometry" />
        </mxCell>
        <mxCell id="nJ3LB4OTwtg94eYrsXtY-13" value="" style="sketch=0;outlineConnect=0;fontColor=#232F3E;gradientColor=none;fillColor=#8C4FFF;strokeColor=none;dashed=0;verticalLabelPosition=bottom;verticalAlign=top;align=center;html=1;fontSize=12;fontStyle=0;aspect=fixed;pointerEvents=1;shape=mxgraph.aws4.nat_gateway;" vertex="1" parent="nJ3LB4OTwtg94eYrsXtY-6">
          <mxGeometry x="111" y="591" width="78" height="78" as="geometry" />
        </mxCell>
        <mxCell id="nJ3LB4OTwtg94eYrsXtY-14" value="Security group" style="fillColor=none;strokeColor=#DD3522;verticalAlign=top;fontStyle=0;fontColor=#DD3522;whiteSpace=wrap;html=1;" vertex="1" parent="nJ3LB4OTwtg94eYrsXtY-2">
          <mxGeometry x="95" y="280" width="750" height="230" as="geometry" />
        </mxCell>
        <mxCell id="nJ3LB4OTwtg94eYrsXtY-15" style="edgeStyle=orthogonalEdgeStyle;rounded=0;orthogonalLoop=1;jettySize=auto;html=1;" edge="1" parent="nJ3LB4OTwtg94eYrsXtY-2" source="nJ3LB4OTwtg94eYrsXtY-18" target="nJ3LB4OTwtg94eYrsXtY-20">
          <mxGeometry relative="1" as="geometry" />
        </mxCell>
        <mxCell id="nJ3LB4OTwtg94eYrsXtY-16" style="edgeStyle=orthogonalEdgeStyle;rounded=0;orthogonalLoop=1;jettySize=auto;html=1;" edge="1" parent="nJ3LB4OTwtg94eYrsXtY-2" source="nJ3LB4OTwtg94eYrsXtY-18" target="nJ3LB4OTwtg94eYrsXtY-30">
          <mxGeometry relative="1" as="geometry" />
        </mxCell>
        <mxCell id="nJ3LB4OTwtg94eYrsXtY-17" style="edgeStyle=orthogonalEdgeStyle;rounded=0;orthogonalLoop=1;jettySize=auto;html=1;" edge="1" parent="nJ3LB4OTwtg94eYrsXtY-2" source="nJ3LB4OTwtg94eYrsXtY-18" target="nJ3LB4OTwtg94eYrsXtY-29">
          <mxGeometry relative="1" as="geometry" />
        </mxCell>
        <mxCell id="nJ3LB4OTwtg94eYrsXtY-18" value="Amazon ECR" style="sketch=0;outlineConnect=0;fontColor=#232F3E;gradientColor=none;strokeColor=#ffffff;fillColor=#232F3E;dashed=0;verticalLabelPosition=middle;verticalAlign=bottom;align=center;html=1;whiteSpace=wrap;fontSize=10;fontStyle=1;spacing=3;shape=mxgraph.aws4.productIcon;prIcon=mxgraph.aws4.ecr;" vertex="1" parent="nJ3LB4OTwtg94eYrsXtY-2">
          <mxGeometry x="430" y="20" width="80" height="100" as="geometry" />
        </mxCell>
        <mxCell id="nJ3LB4OTwtg94eYrsXtY-19" value="Auto Scaling group" style="points=[[0,0],[0.25,0],[0.5,0],[0.75,0],[1,0],[1,0.25],[1,0.5],[1,0.75],[1,1],[0.75,1],[0.5,1],[0.25,1],[0,1],[0,0.75],[0,0.5],[0,0.25]];outlineConnect=0;gradientColor=none;html=1;whiteSpace=wrap;fontSize=12;fontStyle=0;container=1;pointerEvents=0;collapsible=0;recursiveResize=0;shape=mxgraph.aws4.groupCenter;grIcon=mxgraph.aws4.group_auto_scaling_group;grStroke=1;strokeColor=#D86613;fillColor=none;verticalAlign=top;align=center;fontColor=#D86613;dashed=1;spacingTop=25;" vertex="1" parent="nJ3LB4OTwtg94eYrsXtY-2">
          <mxGeometry x="130" y="317.5" width="680" height="162.5" as="geometry" />
        </mxCell>
        <mxCell id="nJ3LB4OTwtg94eYrsXtY-20" value="Amazon ECS" style="sketch=0;outlineConnect=0;fontColor=#232F3E;gradientColor=none;strokeColor=#ffffff;fillColor=#232F3E;dashed=0;verticalLabelPosition=middle;verticalAlign=bottom;align=center;html=1;whiteSpace=wrap;fontSize=10;fontStyle=1;spacing=3;shape=mxgraph.aws4.productIcon;prIcon=mxgraph.aws4.ecs;" vertex="1" parent="nJ3LB4OTwtg94eYrsXtY-19">
          <mxGeometry x="580" y="52.5" width="80" height="100" as="geometry" />
        </mxCell>
        <mxCell id="nJ3LB4OTwtg94eYrsXtY-21" value="" style="sketch=0;points=[[0,0,0],[0.25,0,0],[0.5,0,0],[0.75,0,0],[1,0,0],[0,1,0],[0.25,1,0],[0.5,1,0],[0.75,1,0],[1,1,0],[0,0.25,0],[0,0.5,0],[0,0.75,0],[1,0.25,0],[1,0.5,0],[1,0.75,0]];outlineConnect=0;fontColor=#232F3E;fillColor=#ED7100;strokeColor=#ffffff;dashed=0;verticalLabelPosition=bottom;verticalAlign=top;align=center;html=1;fontSize=12;fontStyle=0;aspect=fixed;shape=mxgraph.aws4.resourceIcon;resIcon=mxgraph.aws4.ec2;" vertex="1" parent="nJ3LB4OTwtg94eYrsXtY-19">
          <mxGeometry x="621" y="92.5" width="38" height="38" as="geometry" />
        </mxCell>
        <mxCell id="nJ3LB4OTwtg94eYrsXtY-22" value="Security group" style="fillColor=none;strokeColor=#DD3522;verticalAlign=top;fontStyle=0;fontColor=#DD3522;whiteSpace=wrap;html=1;" vertex="1" parent="nJ3LB4OTwtg94eYrsXtY-2">
          <mxGeometry x="95" y="540" width="750" height="130" as="geometry" />
        </mxCell>
        <mxCell id="nJ3LB4OTwtg94eYrsXtY-23" style="edgeStyle=orthogonalEdgeStyle;rounded=0;orthogonalLoop=1;jettySize=auto;html=1;" edge="1" parent="nJ3LB4OTwtg94eYrsXtY-2" source="nJ3LB4OTwtg94eYrsXtY-24" target="nJ3LB4OTwtg94eYrsXtY-30">
          <mxGeometry relative="1" as="geometry" />
        </mxCell>
        <mxCell id="nJ3LB4OTwtg94eYrsXtY-24" value="" style="sketch=0;outlineConnect=0;fontColor=#232F3E;gradientColor=none;fillColor=#8C4FFF;strokeColor=none;dashed=0;verticalLabelPosition=bottom;verticalAlign=top;align=center;html=1;fontSize=12;fontStyle=0;aspect=fixed;pointerEvents=1;shape=mxgraph.aws4.network_load_balancer;" vertex="1" parent="nJ3LB4OTwtg94eYrsXtY-2">
          <mxGeometry x="431" y="580" width="78" height="78" as="geometry" />
        </mxCell>
        <mxCell id="nJ3LB4OTwtg94eYrsXtY-25" style="edgeStyle=orthogonalEdgeStyle;rounded=0;orthogonalLoop=1;jettySize=auto;html=1;" edge="1" parent="nJ3LB4OTwtg94eYrsXtY-2" source="nJ3LB4OTwtg94eYrsXtY-26" target="nJ3LB4OTwtg94eYrsXtY-20">
          <mxGeometry relative="1" as="geometry" />
        </mxCell>
        <mxCell id="nJ3LB4OTwtg94eYrsXtY-26" value="" style="sketch=0;outlineConnect=0;fontColor=#232F3E;gradientColor=none;fillColor=#8C4FFF;strokeColor=none;dashed=0;verticalLabelPosition=bottom;verticalAlign=top;align=center;html=1;fontSize=12;fontStyle=0;aspect=fixed;pointerEvents=1;shape=mxgraph.aws4.network_load_balancer;" vertex="1" parent="nJ3LB4OTwtg94eYrsXtY-2">
          <mxGeometry x="711" y="580" width="78" height="78" as="geometry" />
        </mxCell>
        <mxCell id="nJ3LB4OTwtg94eYrsXtY-27" style="edgeStyle=orthogonalEdgeStyle;rounded=0;orthogonalLoop=1;jettySize=auto;html=1;" edge="1" parent="nJ3LB4OTwtg94eYrsXtY-2" source="nJ3LB4OTwtg94eYrsXtY-28" target="nJ3LB4OTwtg94eYrsXtY-29">
          <mxGeometry relative="1" as="geometry" />
        </mxCell>
        <mxCell id="nJ3LB4OTwtg94eYrsXtY-28" value="" style="sketch=0;outlineConnect=0;fontColor=#232F3E;gradientColor=none;fillColor=#8C4FFF;strokeColor=none;dashed=0;verticalLabelPosition=bottom;verticalAlign=top;align=center;html=1;fontSize=12;fontStyle=0;aspect=fixed;pointerEvents=1;shape=mxgraph.aws4.network_load_balancer;" vertex="1" parent="nJ3LB4OTwtg94eYrsXtY-2">
          <mxGeometry x="151" y="580" width="78" height="78" as="geometry" />
        </mxCell>
        <mxCell id="nJ3LB4OTwtg94eYrsXtY-29" value="Amazon ECS" style="sketch=0;outlineConnect=0;fontColor=#232F3E;gradientColor=none;strokeColor=#ffffff;fillColor=#232F3E;dashed=0;verticalLabelPosition=middle;verticalAlign=bottom;align=center;html=1;whiteSpace=wrap;fontSize=10;fontStyle=1;spacing=3;shape=mxgraph.aws4.productIcon;prIcon=mxgraph.aws4.ecs;" vertex="1" parent="nJ3LB4OTwtg94eYrsXtY-2">
          <mxGeometry x="150" y="370" width="80" height="100" as="geometry" />
        </mxCell>
        <mxCell id="nJ3LB4OTwtg94eYrsXtY-30" value="Amazon ECS" style="sketch=0;outlineConnect=0;fontColor=#232F3E;gradientColor=none;strokeColor=#ffffff;fillColor=#232F3E;dashed=0;verticalLabelPosition=middle;verticalAlign=bottom;align=center;html=1;whiteSpace=wrap;fontSize=10;fontStyle=1;spacing=3;shape=mxgraph.aws4.productIcon;prIcon=mxgraph.aws4.ecs;" vertex="1" parent="nJ3LB4OTwtg94eYrsXtY-2">
          <mxGeometry x="430" y="370" width="80" height="100" as="geometry" />
        </mxCell>
        <mxCell id="nJ3LB4OTwtg94eYrsXtY-31" value="" style="sketch=0;points=[[0,0,0],[0.25,0,0],[0.5,0,0],[0.75,0,0],[1,0,0],[0,1,0],[0.25,1,0],[0.5,1,0],[0.75,1,0],[1,1,0],[0,0.25,0],[0,0.5,0],[0,0.75,0],[1,0.25,0],[1,0.5,0],[1,0.75,0]];outlineConnect=0;fontColor=#232F3E;fillColor=#ED7100;strokeColor=#ffffff;dashed=0;verticalLabelPosition=bottom;verticalAlign=top;align=center;html=1;fontSize=12;fontStyle=0;aspect=fixed;shape=mxgraph.aws4.resourceIcon;resIcon=mxgraph.aws4.ec2;" vertex="1" parent="nJ3LB4OTwtg94eYrsXtY-2">
          <mxGeometry x="190" y="410" width="38" height="38" as="geometry" />
        </mxCell>
        <mxCell id="nJ3LB4OTwtg94eYrsXtY-32" value="" style="sketch=0;points=[[0,0,0],[0.25,0,0],[0.5,0,0],[0.75,0,0],[1,0,0],[0,1,0],[0.25,1,0],[0.5,1,0],[0.75,1,0],[1,1,0],[0,0.25,0],[0,0.5,0],[0,0.75,0],[1,0.25,0],[1,0.5,0],[1,0.75,0]];outlineConnect=0;fontColor=#232F3E;fillColor=#ED7100;strokeColor=#ffffff;dashed=0;verticalLabelPosition=bottom;verticalAlign=top;align=center;html=1;fontSize=12;fontStyle=0;aspect=fixed;shape=mxgraph.aws4.resourceIcon;resIcon=mxgraph.aws4.ec2;" vertex="1" parent="nJ3LB4OTwtg94eYrsXtY-2">
          <mxGeometry x="472" y="410" width="38" height="38" as="geometry" />
        </mxCell>
        <mxCell id="nJ3LB4OTwtg94eYrsXtY-33" style="edgeStyle=orthogonalEdgeStyle;rounded=0;orthogonalLoop=1;jettySize=auto;html=1;" edge="1" parent="nJ3LB4OTwtg94eYrsXtY-2" source="nJ3LB4OTwtg94eYrsXtY-12" target="nJ3LB4OTwtg94eYrsXtY-24">
          <mxGeometry relative="1" as="geometry" />
        </mxCell>
        <mxCell id="nJ3LB4OTwtg94eYrsXtY-34" style="edgeStyle=orthogonalEdgeStyle;rounded=0;orthogonalLoop=1;jettySize=auto;html=1;" edge="1" parent="nJ3LB4OTwtg94eYrsXtY-2" source="nJ3LB4OTwtg94eYrsXtY-12" target="nJ3LB4OTwtg94eYrsXtY-26">
          <mxGeometry relative="1" as="geometry">
            <Array as="points">
              <mxPoint x="470" y="720" />
              <mxPoint x="750" y="720" />
            </Array>
          </mxGeometry>
        </mxCell>
        <mxCell id="nJ3LB4OTwtg94eYrsXtY-35" style="edgeStyle=orthogonalEdgeStyle;rounded=0;orthogonalLoop=1;jettySize=auto;html=1;" edge="1" parent="nJ3LB4OTwtg94eYrsXtY-2" source="nJ3LB4OTwtg94eYrsXtY-12" target="nJ3LB4OTwtg94eYrsXtY-28">
          <mxGeometry relative="1" as="geometry">
            <Array as="points">
              <mxPoint x="470" y="720" />
              <mxPoint x="190" y="720" />
            </Array>
          </mxGeometry>
        </mxCell>
        <mxCell id="nJ3LB4OTwtg94eYrsXtY-36" value="" style="sketch=0;outlineConnect=0;fontColor=#232F3E;gradientColor=none;fillColor=#DD344C;strokeColor=none;dashed=0;verticalLabelPosition=bottom;verticalAlign=top;align=center;html=1;fontSize=12;fontStyle=0;aspect=fixed;pointerEvents=1;shape=mxgraph.aws4.sts;" vertex="1" parent="nJ3LB4OTwtg94eYrsXtY-2">
          <mxGeometry x="151" y="970" width="78" height="50" as="geometry" />
        </mxCell>
        <mxCell id="nJ3LB4OTwtg94eYrsXtY-37" value="" style="sketch=0;outlineConnect=0;fontColor=#232F3E;gradientColor=none;fillColor=#DD344C;strokeColor=none;dashed=0;verticalLabelPosition=bottom;verticalAlign=top;align=center;html=1;fontSize=12;fontStyle=0;aspect=fixed;pointerEvents=1;shape=mxgraph.aws4.sts_alternate;" vertex="1" parent="nJ3LB4OTwtg94eYrsXtY-2">
          <mxGeometry x="719" y="956" width="62" height="78" as="geometry" />
        </mxCell>
        <mxCell id="nJ3LB4OTwtg94eYrsXtY-38" value="Amazon Route 53" style="sketch=0;outlineConnect=0;fontColor=#232F3E;gradientColor=none;strokeColor=#ffffff;fillColor=#232F3E;dashed=0;verticalLabelPosition=middle;verticalAlign=bottom;align=center;html=1;whiteSpace=wrap;fontSize=10;fontStyle=1;spacing=3;shape=mxgraph.aws4.productIcon;prIcon=mxgraph.aws4.route_53;" vertex="1" parent="nJ3LB4OTwtg94eYrsXtY-1">
          <mxGeometry x="751" y="1140" width="80" height="110" as="geometry" />
        </mxCell>
        <mxCell id="nJ3LB4OTwtg94eYrsXtY-39" style="edgeStyle=orthogonalEdgeStyle;rounded=0;orthogonalLoop=1;jettySize=auto;html=1;startArrow=classic;startFill=1;" edge="1" parent="1" source="nJ3LB4OTwtg94eYrsXtY-41" target="nJ3LB4OTwtg94eYrsXtY-38">
          <mxGeometry relative="1" as="geometry" />
        </mxCell>
        <mxCell id="nJ3LB4OTwtg94eYrsXtY-40" style="edgeStyle=orthogonalEdgeStyle;rounded=0;orthogonalLoop=1;jettySize=auto;html=1;" edge="1" parent="1" source="nJ3LB4OTwtg94eYrsXtY-41" target="nJ3LB4OTwtg94eYrsXtY-12">
          <mxGeometry relative="1" as="geometry" />
        </mxCell>
        <mxCell id="nJ3LB4OTwtg94eYrsXtY-41" value="" style="sketch=0;outlineConnect=0;fontColor=#232F3E;gradientColor=none;fillColor=#232F3D;strokeColor=none;dashed=0;verticalLabelPosition=bottom;verticalAlign=top;align=center;html=1;fontSize=12;fontStyle=0;aspect=fixed;pointerEvents=1;shape=mxgraph.aws4.users;" vertex="1" parent="1">
          <mxGeometry x="511" y="1440" width="78" height="78" as="geometry" />
        </mxCell>
      </root>
    </mxGraphModel>
  </diagram>
</mxfile>
